<svg width="947" height="833" viewBox="0 0 947 833" fill="none" xmlns="http://www.w3.org/2000/svg">
<g filter="url(#filter0_b_80_124)">
<g filter="url(#filter1_dddd_80_124)">
<rect x="18" y="19" width="700.574" height="609.548" rx="55" fill="url(#paint0_linear_80_124)" fill-opacity="0.5"/>
<rect x="18.75" y="19.75" width="699.074" height="608.048" rx="54.25" stroke="black" stroke-width="1.5"/>
</g>
<path d="M91.0596 184.041H114.717L157.71 259.407V184.041H178.73V292H156.172L112.08 215.315V292H91.0596V184.041ZM279.658 203.157H222.529V226.082H274.971V244.832H222.529V272.591H282.295V292H200.483V184.041H279.658V203.157ZM314.595 184.041L328.877 245.857L331.953 263.069L335.103 246.224L347.261 184.041H371.064L383.882 245.857L387.178 263.069L390.474 246.517L404.902 184.041H427.827L397.432 292H375.898L362.861 228.865L359.053 207.991L355.244 228.865L342.207 292H321.26L290.645 184.041H314.595ZM113.325 374.791V445.25H134.126C144.771 445.25 152.192 440.001 156.392 429.503C158.687 423.741 159.834 416.881 159.834 408.922C159.834 397.936 158.101 389.513 154.634 383.653C151.216 377.745 144.38 374.791 134.126 374.791H113.325ZM137.935 356.041C144.624 356.139 150.19 356.92 154.634 358.385C162.202 360.875 168.33 365.44 173.018 372.081C176.777 377.452 179.341 383.263 180.708 389.513C182.075 395.763 182.759 401.72 182.759 407.384C182.759 421.739 179.878 433.897 174.116 443.858C166.304 457.286 154.243 464 137.935 464H91.4258V356.041H137.935ZM279.658 375.157H222.529V398.082H274.971V416.832H222.529V444.591H282.295V464H200.483V356.041H279.658V375.157ZM316.206 430.675C316.89 435.606 318.232 439.293 320.234 441.734C323.896 446.178 330.171 448.399 339.058 448.399C344.38 448.399 348.701 447.813 352.021 446.642C358.32 444.396 361.47 440.221 361.47 434.117C361.47 430.553 359.907 427.794 356.782 425.841C353.657 423.937 348.75 422.252 342.061 420.787L330.635 418.224C319.404 415.685 311.641 412.926 307.344 409.947C300.068 404.967 296.431 397.179 296.431 386.583C296.431 376.915 299.946 368.883 306.978 362.486C314.009 356.09 324.336 352.892 337.959 352.892C349.336 352.892 359.028 355.919 367.036 361.974C375.093 367.979 379.316 376.72 379.707 388.194H358.027C357.637 381.7 354.805 377.086 349.531 374.352C346.016 372.545 341.646 371.642 336.421 371.642C330.61 371.642 325.972 372.813 322.505 375.157C319.038 377.501 317.305 380.772 317.305 384.972C317.305 388.829 319.014 391.71 322.432 393.614C324.629 394.884 329.316 396.373 336.494 398.082L355.098 402.55C363.252 404.503 369.404 407.115 373.555 410.387C380 415.465 383.223 422.813 383.223 432.433C383.223 442.296 379.438 450.499 371.87 457.042C364.351 463.536 353.706 466.783 339.937 466.783C325.874 466.783 314.814 463.585 306.758 457.188C298.701 450.743 294.673 441.905 294.673 430.675H316.206ZM420.576 464H398.164V356.041H420.576V464ZM514.253 389.732C512.544 382.359 508.369 377.208 501.729 374.278C498.018 372.667 493.892 371.861 489.351 371.861C480.659 371.861 473.506 375.157 467.891 381.749C462.324 388.292 459.541 398.155 459.541 411.339C459.541 424.62 462.568 434.02 468.623 439.537C474.678 445.055 481.562 447.813 489.277 447.813C496.846 447.813 503.047 445.641 507.881 441.295C512.715 436.9 515.693 431.163 516.816 424.083H491.841V406.065H536.812V464H521.87L519.6 450.523C515.254 455.65 511.348 459.264 507.881 461.363C501.924 465.025 494.6 466.856 485.908 466.856C471.602 466.856 459.883 461.9 450.752 451.988C441.23 442.027 436.47 428.404 436.47 411.119C436.47 393.639 441.279 379.625 450.898 369.078C460.518 358.531 473.237 353.258 489.058 353.258C502.778 353.258 513.789 356.749 522.09 363.731C530.439 370.665 535.225 379.332 536.445 389.732H514.253ZM558.052 356.041H581.709L624.702 431.407V356.041H645.723V464H623.164L579.072 387.315V464H558.052V356.041Z" fill="white"/>
</g>
<defs>
<filter id="filter0_b_80_124" x="-72" y="-71" width="880.574" height="789.548" filterUnits="userSpaceOnUse" color-interpolation-filters="sRGB">
<feFlood flood-opacity="0" result="BackgroundImageFix"/>
<feGaussianBlur in="BackgroundImageFix" stdDeviation="45"/>
<feComposite in2="SourceAlpha" operator="in" result="effect1_backgroundBlur_80_124"/>
<feBlend mode="normal" in="SourceGraphic" in2="effect1_backgroundBlur_80_124" result="shape"/>
</filter>
<filter id="filter1_dddd_80_124" x="0" y="0" width="946.574" height="832.548" filterUnits="userSpaceOnUse" color-interpolation-filters="sRGB">
<feFlood flood-opacity="0" result="BackgroundImageFix"/>
<feColorMatrix in="SourceAlpha" type="matrix" values="0 0 0 0 0 0 0 0 0 0 0 0 0 0 0 0 0 0 127 0" result="hardAlpha"/>
<feOffset dx="9" dy="8"/>
<feGaussianBlur stdDeviation="13.5"/>
<feColorMatrix type="matrix" values="0 0 0 0 0 0 0 0 0 0 0 0 0 0 0 0 0 0 0.15 0"/>
<feBlend mode="normal" in2="BackgroundImageFix" result="effect1_dropShadow_80_124"/>
<feColorMatrix in="SourceAlpha" type="matrix" values="0 0 0 0 0 0 0 0 0 0 0 0 0 0 0 0 0 0 127 0" result="hardAlpha"/>
<feOffset dx="37" dy="32"/>
<feGaussianBlur stdDeviation="24.5"/>
<feColorMatrix type="matrix" values="0 0 0 0 0 0 0 0 0 0 0 0 0 0 0 0 0 0 0.13 0"/>
<feBlend mode="normal" in2="effect1_dropShadow_80_124" result="effect2_dropShadow_80_124"/>
<feColorMatrix in="SourceAlpha" type="matrix" values="0 0 0 0 0 0 0 0 0 0 0 0 0 0 0 0 0 0 127 0" result="hardAlpha"/>
<feOffset dx="84" dy="71"/>
<feGaussianBlur stdDeviation="33"/>
<feColorMatrix type="matrix" values="0 0 0 0 0 0 0 0 0 0 0 0 0 0 0 0 0 0 0.08 0"/>
<feBlend mode="normal" in2="effect2_dropShadow_80_124" result="effect3_dropShadow_80_124"/>
<feColorMatrix in="SourceAlpha" type="matrix" values="0 0 0 0 0 0 0 0 0 0 0 0 0 0 0 0 0 0 127 0" result="hardAlpha"/>
<feOffset dx="150" dy="126"/>
<feGaussianBlur stdDeviation="39"/>
<feColorMatrix type="matrix" values="0 0 0 0 0 0 0 0 0 0 0 0 0 0 0 0 0 0 0.02 0"/>
<feBlend mode="normal" in2="effect3_dropShadow_80_124" result="effect4_dropShadow_80_124"/>
<feBlend mode="normal" in="SourceGraphic" in2="effect4_dropShadow_80_124" result="shape"/>
</filter>
<linearGradient id="paint0_linear_80_124" x1="18.0396" y1="19.0107" x2="719.04" y2="629.011" gradientUnits="userSpaceOnUse">
<stop stop-color="#141414"/>
<stop offset="1" stop-color="#2A2A2A"/>
</linearGradient>
</defs>
</svg>
