<svg xmlns="http://www.w3.org/2000/svg" version="1.1" xmlns:xlink="http://www.w3.org/1999/xlink" xmlns:svgjs="http://svgjs.dev/svgjs" width="1500" height="1500" viewBox="0 0 1500 1500"><rect width="1500" height="1500" fill="#000000"></rect><g transform="matrix(0.6666666666666666,0,0,0.6666666666666666,249.39393939393938,646.5597282208092)"><svg viewBox="0 0 396 82" data-background-color="#ffffff" preserveAspectRatio="xMidYMid meet" height="310" width="1500" xmlns="http://www.w3.org/2000/svg" xmlns:xlink="http://www.w3.org/1999/xlink"><g id="tight-bounds" transform="matrix(1,0,0,1,0.2400000000000091,0.042430415614376216)"><svg viewBox="0 0 395.52 81.91513916877122" height="81.91513916877122" width="395.52"><g><svg viewBox="0 0 519.9214708958733 107.67961075360968" height="81.91513916877122" width="395.52"><g transform="matrix(1,0,0,1,124.4014708958733,18.423540821611553)"><svg viewBox="0 0 395.52 70.83252911038657" height="70.83252911038657" width="395.52"><g id="textblocktransform"><svg viewBox="0 0 395.52 70.83252911038657" height="70.83252911038657" width="395.52" id="textblock"><g><svg viewBox="0 0 395.52 70.83252911038657" height="70.83252911038657" width="395.52"><g transform="matrix(1,0,0,1,0,0)"><svg width="395.52" viewBox="2.85 -37.7 214.68 38.45" height="70.83252911038657" data-palette-color="#000000"><path d="M26.5-27.15Q29.15-27.15 30.75-25.1 32.35-23.05 32.35-19.6L32.35-19.6 32.35 0 26.3 0 26.3-18.95Q26.3-20.85 25.8-21.68 25.3-22.5 24.35-22.5L24.35-22.5Q22.4-22.5 20.6-18.8L20.6-18.8 20.6 0 14.6 0 14.6-18.95Q14.6-22.5 12.7-22.5L12.7-22.5Q10.65-22.5 8.9-18.8L8.9-18.8 8.9 0 2.85 0 2.85-26.45 8.2-26.45 8.6-23.05Q11.2-27.15 14.85-27.15L14.85-27.15Q16.7-27.15 18.05-26 19.4-24.85 20.1-22.75L20.1-22.75Q22.75-27.15 26.5-27.15L26.5-27.15ZM56-26.45L56 0 50.65 0 50.35-3.35Q49.1-1.3 47.55-0.28 46 0.75 43.95 0.75L43.95 0.75Q41.05 0.75 39.37-1.3 37.7-3.35 37.7-6.65L37.7-6.65 37.7-26.45 43.85-26.45 43.85-7Q43.85-3.9 45.95-3.9L45.95-3.9Q47.15-3.9 48.1-4.83 49.05-5.75 49.85-7.45L49.85-7.45 49.85-26.45 56-26.45ZM74.05-27.15Q76.9-27.15 78.55-25.1 80.2-23.05 80.2-19.6L80.2-19.6 80.2 0 74.05 0 74.05-18.9Q74.05-20.8 73.52-21.63 73-22.45 72-22.45L72-22.45Q69.9-22.45 67.84-18.5L67.84-18.5 67.84 0 61.7 0 61.7-26.45 67.05-26.45 67.5-23Q68.84-25.1 70.37-26.13 71.9-27.15 74.05-27.15L74.05-27.15ZM95.24-27.15Q97.39-27.15 99.14-26.43 100.89-25.7 102.49-24.15L102.49-24.15 99.84-20.65Q98.74-21.55 97.77-21.98 96.79-22.4 95.64-22.4L95.64-22.4Q93.39-22.4 92.24-20.28 91.09-18.15 91.09-13.1L91.09-13.1Q91.09-8.2 92.27-6.2 93.44-4.2 95.64-4.2L95.64-4.2Q96.74-4.2 97.64-4.6 98.54-5 99.74-5.85L99.74-5.85 102.49-2.3Q99.29 0.75 95.34 0.75L95.34 0.75Q90.24 0.75 87.42-2.73 84.59-6.2 84.59-13L84.59-13Q84.59-17.4 85.89-20.6 87.19-23.8 89.62-25.48 92.04-27.15 95.24-27.15L95.24-27.15ZM117.89-27.15Q120.74-27.15 122.39-25.1 124.04-23.05 124.04-19.6L124.04-19.6 124.04 0 117.89 0 117.89-18.9Q117.89-20.8 117.37-21.63 116.84-22.45 115.84-22.45L115.84-22.45Q113.74-22.45 111.69-18.5L111.69-18.5 111.69 0 105.54 0 105.54-37 111.69-37.65 111.69-23.3Q112.94-25.25 114.42-26.2 115.89-27.15 117.89-27.15L117.89-27.15ZM139.09-27.15Q141.24-27.15 142.99-26.43 144.74-25.7 146.34-24.15L146.34-24.15 143.69-20.65Q142.59-21.55 141.61-21.98 140.64-22.4 139.49-22.4L139.49-22.4Q137.24-22.4 136.09-20.28 134.94-18.15 134.94-13.1L134.94-13.1Q134.94-8.2 136.11-6.2 137.29-4.2 139.49-4.2L139.49-4.2Q140.59-4.2 141.49-4.6 142.39-5 143.59-5.85L143.59-5.85 146.34-2.3Q143.14 0.75 139.19 0.75L139.19 0.75Q134.09 0.75 131.26-2.73 128.44-6.2 128.44-13L128.44-13Q128.44-17.4 129.74-20.6 131.04-23.8 133.46-25.48 135.89-27.15 139.09-27.15L139.09-27.15ZM158.79-27.15Q163.79-27.15 166.56-23.65 169.34-20.15 169.34-13.25L169.34-13.25Q169.34-6.65 166.54-2.95 163.74 0.75 158.79 0.75L158.79 0.75Q153.84 0.75 151.04-2.88 148.24-6.5 148.24-13.25L148.24-13.25Q148.24-19.95 151.04-23.55 153.84-27.15 158.79-27.15L158.79-27.15ZM158.79-22.5Q156.64-22.5 155.64-20.38 154.64-18.25 154.64-13.25L154.64-13.25Q154.64-8.2 155.64-6.08 156.64-3.95 158.79-3.95L158.79-3.95Q160.94-3.95 161.94-6.08 162.94-8.2 162.94-13.25L162.94-13.25Q162.94-18.3 161.94-20.4 160.94-22.5 158.79-22.5L158.79-22.5ZM186.83-37.7L192.98-37.05 192.98 0 187.53 0 187.23-3.05Q184.88 0.75 181.18 0.75L181.18 0.75Q177.08 0.75 174.91-2.93 172.73-6.6 172.73-13.2L172.73-13.2Q172.73-17.4 173.86-20.58 174.98-23.75 176.98-25.45 178.98-27.15 181.58-27.15L181.58-27.15Q184.78-27.15 186.83-24.5L186.83-24.5 186.83-37.7ZM182.93-3.9Q184.08-3.9 185.01-4.7 185.93-5.5 186.83-7L186.83-7 186.83-19.85Q185.23-22.55 183.18-22.55L183.18-22.55Q179.13-22.55 179.13-13.25L179.13-13.25Q179.13-8.2 180.13-6.05 181.13-3.9 182.93-3.9L182.93-3.9ZM217.53-13.85Q217.53-13.4 217.38-11.3L217.38-11.3 203.73-11.3Q203.93-7.2 205.16-5.58 206.38-3.95 208.63-3.95L208.63-3.95Q210.18-3.95 211.43-4.48 212.68-5 214.13-6.15L214.13-6.15 216.68-2.65Q213.18 0.75 208.28 0.75L208.28 0.75Q203.08 0.75 200.31-2.85 197.53-6.45 197.53-13L197.53-13Q197.53-19.55 200.18-23.35 202.83-27.15 207.68-27.15L207.68-27.15Q212.33-27.15 214.93-23.78 217.53-20.4 217.53-13.85L217.53-13.85ZM211.53-15.3L211.53-15.65Q211.53-19.4 210.63-21.13 209.73-22.85 207.73-22.85L207.73-22.85Q205.88-22.85 204.91-21.18 203.93-19.5 203.73-15.3L203.73-15.3 211.53-15.3Z" opacity="1" transform="matrix(1,0,0,1,0,0)" fill="#ffffff" class="wordmark-text-0" data-fill-palette-color="primary" id="text-0"></path></svg></g></svg></g></svg></g></svg></g><g><svg viewBox="0 0 107.67961075360968 107.67961075360968" height="107.67961075360968" width="107.67961075360968"><g><svg xmlns="http://www.w3.org/2000/svg" xmlns:xlink="http://www.w3.org/1999/xlink" xmlns:serif="http://www.serif.com/" viewBox="0.5 0 100 100" version="1.1" xml:space="preserve" style="" x="0" y="0" fill-rule="evenodd" clip-rule="evenodd" stroke-linejoin="round" stroke-miterlimit="2" height="107.67961075360968" width="107.67961075360968" class="icon-icon-0" data-fill-palette-color="accent" id="icon-0"><circle cx="70.825" cy="27.925" r="4.8" fill="#ffffff" data-fill-palette-color="accent"></circle><circle cx="31.528" cy="27.925" r="4.8" fill="#ffffff" data-fill-palette-color="accent"></circle><path d="M21.294 47.848C21.96 47.917 22.15 48.031 22.48 48.252 23.885 49.193 23.768 51.636 22.16 52.453L22.007 52.533C14.563 56.502 8.946 64.571 10.581 73.602 11.277 77.451 13.006 81.057 15.111 84.365 15.111 84.365 15.967 87.199 13.881 87.943 12.815 88.323 11.585 87.841 10.937 86.818A45 45 0 0 1 10.569 86.229C5.727 78.348 3.352 68.546 8.027 59.754 10.694 54.74 15.067 50.593 20.041 48.103 20.041 48.103 20.709 47.831 21.294 47.848" fill="#ffffff" data-fill-palette-color="accent"></path><path d="M79.997 47.851C80.935 47.965 81.773 48.559 82.62 49.085 89.079 53.093 94.273 59.585 95.304 67.138 96.217 73.822 93.842 80.655 90.179 86.523 89.159 88.157 86.389 88.827 85.572 86.449 85.068 84.981 86.362 83.572 87.22 82.009 90.508 76.022 92.057 68.727 88.772 62.297 86.609 58.063 82.992 54.566 78.738 52.437 78.738 52.437 77.367 51.51 77.377 50.242 77.387 49.099 78.317 48.029 79.456 47.867 79.8 47.818 79.885 47.846 79.997 47.851" fill="#ffffff" data-fill-palette-color="accent"></path><path d="M30.644 11.928C37.627 11.996 44.101 17.378 45.374 24.25 46.278 29.129 44.592 34.407 41.014 37.859 36.839 41.888 30.23 43.211 24.762 40.937 19.918 38.922 16.294 34.215 15.6 29.019 14.748 22.65 18.465 15.921 24.341 13.262A15.2 15.2 0 0 1 30.644 11.928M30.48 16.767C25.785 16.812 21.378 20.429 20.488 25.068 19.266 31.441 25.147 38.428 32.423 37.078 36.352 36.349 39.699 33.118 40.553 29.197 41.839 23.299 37.081 16.744 30.48 16.767" fill="#ffffff" data-fill-palette-color="accent"></path><path d="M71.877 11.928C78.818 11.995 85.276 17.307 86.59 24.157 87.53 29.06 85.847 34.386 82.248 37.859 78.074 41.888 71.463 43.21 65.996 40.937 61.183 38.935 57.57 34.283 56.846 29.113 55.95 22.71 59.668 15.934 65.574 13.262A15.2 15.2 0 0 1 71.877 11.928M71.714 16.767C66.772 16.815 62.174 20.849 61.605 25.83 60.898 32.019 66.771 38.355 73.656 37.078 77.81 36.307 81.296 32.712 81.913 28.506 82.746 22.815 78.08 16.863 71.913 16.767z" fill="#ffffff" data-fill-palette-color="accent"></path><path d="M51.789 33.657C52.332 33.717 52.504 33.802 52.8 33.971 54.231 34.794 54.176 36.913 52.895 38.173 50.51 40.549 48.338 43.331 47.516 46.448 46.858 48.943 47.715 52.25 50.478 52.225 52.431 52.207 54.111 50.43 54.923 48.84 54.923 48.84 55.779 47.584 56.952 47.523 58.656 47.435 60.065 49.448 59.155 51.189A13 13 0 0 1 58.989 51.497C56.825 55.382 52.253 58.213 47.836 56.608 44.481 55.39 42.354 51.674 42.428 48.032 42.538 42.552 46.305 37.696 49.921 34.321 49.921 34.321 50.936 33.612 51.789 33.657" fill="#ffffff" data-fill-palette-color="accent"></path><path d="M39.704 74.938A10.2 10.2 0 0 1 38.946 77.335C37.968 79.459 36.365 81.251 34.553 82.734 34.553 82.734 32.998 83.717 31.758 83.002 30.395 82.217 30.166 80.066 31.497 78.982L31.699 78.815 31.941 78.607C32.279 78.309 32.606 77.998 32.914 77.669 34.615 75.852 35.571 73.185 34.792 70.711 34.199 68.829 32.881 67.142 31.581 65.846A2 2 0 0 1 31.411 65.658C30.322 64.318 31.196 61.823 33.157 61.717 33.242 61.712 33.326 61.714 33.411 61.716 34.765 61.82 35.76 63.091 36.702 64.285 38.052 65.995 39.054 68.008 39.545 70.1H61.287C61.97 67.226 63.682 64.569 65.804 62.537 66.333 62.031 67.005 61.695 67.773 61.717 69.632 61.866 70.774 64.426 69.349 65.846 67.102 68.085 65.107 71.169 66.037 74.397 66.57 76.247 67.93 77.743 69.382 78.94 69.382 78.94 71.062 80.928 69.843 82.43 68.998 83.471 67.359 83.548 66.245 82.625 63.841 80.633 61.886 77.937 61.217 74.938z" fill="#ffffff" data-fill-palette-color="accent"></path></svg></g></svg></g></svg></g><defs></defs></svg><rect width="395.52" height="81.91513916877122" fill="none" stroke="none" visibility="hidden"></rect></g></svg></g></svg>