<svg width="948" height="834" viewBox="0 0 948 834" fill="none" xmlns="http://www.w3.org/2000/svg">
<g filter="url(#filter0_dddd_80_124)">
<rect x="18.9604" y="19.9893" width="700.574" height="609.548" rx="55" fill="#1E1E1E"/>
<rect x="20.4604" y="21.4893" width="697.574" height="606.548" rx="53.5" stroke="black" stroke-width="3"/>
</g>
<path d="M85.0596 201.041H108.717L151.71 276.407V201.041H172.73V309H150.172L106.08 232.315V309H85.0596V201.041ZM273.658 220.157H216.529V243.082H268.971V261.832H216.529V289.591H276.295V309H194.483V201.041H273.658V220.157ZM308.595 201.041L322.877 262.857L325.953 280.069L329.103 263.224L341.261 201.041H365.064L377.882 262.857L381.178 280.069L384.474 263.517L398.902 201.041H421.827L391.432 309H369.898L356.861 245.865L353.053 224.991L349.244 245.865L336.207 309H315.26L284.645 201.041H308.595Z" fill="white"/>
<path d="M107.325 368.791V439.25H128.126C138.771 439.25 146.192 434.001 150.392 423.503C152.687 417.741 153.834 410.881 153.834 402.922C153.834 391.936 152.101 383.513 148.634 377.653C145.216 371.745 138.38 368.791 128.126 368.791H107.325ZM131.935 350.041C138.624 350.139 144.19 350.92 148.634 352.385C156.202 354.875 162.33 359.44 167.018 366.081C170.777 371.452 173.341 377.263 174.708 383.513C176.075 389.763 176.759 395.72 176.759 401.384C176.759 415.739 173.878 427.897 168.116 437.858C160.304 451.286 148.243 458 131.935 458H85.4258V350.041H131.935ZM273.658 369.157H216.529V392.082H268.971V410.832H216.529V438.591H276.295V458H194.483V350.041H273.658V369.157ZM310.206 424.675C310.89 429.606 312.232 433.293 314.234 435.734C317.896 440.178 324.171 442.399 333.058 442.399C338.38 442.399 342.701 441.813 346.021 440.642C352.32 438.396 355.47 434.221 355.47 428.117C355.47 424.553 353.907 421.794 350.782 419.841C347.657 417.937 342.75 416.252 336.061 414.787L324.635 412.224C313.404 409.685 305.641 406.926 301.344 403.947C294.068 398.967 290.431 391.179 290.431 380.583C290.431 370.915 293.946 362.883 300.978 356.486C308.009 350.09 318.336 346.892 331.959 346.892C343.336 346.892 353.028 349.919 361.036 355.974C369.093 361.979 373.316 370.72 373.707 382.194H352.027C351.637 375.7 348.805 371.086 343.531 368.352C340.016 366.545 335.646 365.642 330.421 365.642C324.61 365.642 319.972 366.813 316.505 369.157C313.038 371.501 311.305 374.772 311.305 378.972C311.305 382.829 313.014 385.71 316.432 387.614C318.629 388.884 323.316 390.373 330.494 392.082L349.098 396.55C357.252 398.503 363.404 401.115 367.555 404.387C374 409.465 377.223 416.813 377.223 426.433C377.223 436.296 373.438 444.499 365.87 451.042C358.351 457.536 347.706 460.783 333.937 460.783C319.874 460.783 308.814 457.585 300.758 451.188C292.701 444.743 288.673 435.905 288.673 424.675H310.206ZM414.576 458H392.164V350.041H414.576V458ZM508.253 383.732C506.544 376.359 502.369 371.208 495.729 368.278C492.018 366.667 487.892 365.861 483.351 365.861C474.659 365.861 467.506 369.157 461.891 375.749C456.324 382.292 453.541 392.155 453.541 405.339C453.541 418.62 456.568 428.02 462.623 433.537C468.678 439.055 475.562 441.813 483.277 441.813C490.846 441.813 497.047 439.641 501.881 435.295C506.715 430.9 509.693 425.163 510.816 418.083H485.841V400.065H530.812V458H515.87L513.6 444.523C509.254 449.65 505.348 453.264 501.881 455.363C495.924 459.025 488.6 460.856 479.908 460.856C465.602 460.856 453.883 455.9 444.752 445.988C435.23 436.027 430.47 422.404 430.47 405.119C430.47 387.639 435.279 373.625 444.898 363.078C454.518 352.531 467.237 347.258 483.058 347.258C496.778 347.258 507.789 350.749 516.09 357.731C524.439 364.665 529.225 373.332 530.445 383.732H508.253ZM552.052 350.041H575.709L618.702 425.407V350.041H639.723V458H617.164L573.072 381.315V458H552.052V350.041Z" fill="white"/>
<defs>
<filter id="filter0_dddd_80_124" x="0.960449" y="0.989258" width="946.574" height="832.548" filterUnits="userSpaceOnUse" color-interpolation-filters="sRGB">
<feFlood flood-opacity="0" result="BackgroundImageFix"/>
<feColorMatrix in="SourceAlpha" type="matrix" values="0 0 0 0 0 0 0 0 0 0 0 0 0 0 0 0 0 0 127 0" result="hardAlpha"/>
<feOffset dx="9" dy="8"/>
<feGaussianBlur stdDeviation="13.5"/>
<feColorMatrix type="matrix" values="0 0 0 0 0 0 0 0 0 0 0 0 0 0 0 0 0 0 0.15 0"/>
<feBlend mode="normal" in2="BackgroundImageFix" result="effect1_dropShadow_80_124"/>
<feColorMatrix in="SourceAlpha" type="matrix" values="0 0 0 0 0 0 0 0 0 0 0 0 0 0 0 0 0 0 127 0" result="hardAlpha"/>
<feOffset dx="37" dy="32"/>
<feGaussianBlur stdDeviation="24.5"/>
<feColorMatrix type="matrix" values="0 0 0 0 0 0 0 0 0 0 0 0 0 0 0 0 0 0 0.13 0"/>
<feBlend mode="normal" in2="effect1_dropShadow_80_124" result="effect2_dropShadow_80_124"/>
<feColorMatrix in="SourceAlpha" type="matrix" values="0 0 0 0 0 0 0 0 0 0 0 0 0 0 0 0 0 0 127 0" result="hardAlpha"/>
<feOffset dx="84" dy="71"/>
<feGaussianBlur stdDeviation="33"/>
<feColorMatrix type="matrix" values="0 0 0 0 0 0 0 0 0 0 0 0 0 0 0 0 0 0 0.08 0"/>
<feBlend mode="normal" in2="effect2_dropShadow_80_124" result="effect3_dropShadow_80_124"/>
<feColorMatrix in="SourceAlpha" type="matrix" values="0 0 0 0 0 0 0 0 0 0 0 0 0 0 0 0 0 0 127 0" result="hardAlpha"/>
<feOffset dx="150" dy="126"/>
<feGaussianBlur stdDeviation="39"/>
<feColorMatrix type="matrix" values="0 0 0 0 0 0 0 0 0 0 0 0 0 0 0 0 0 0 0.02 0"/>
<feBlend mode="normal" in2="effect3_dropShadow_80_124" result="effect4_dropShadow_80_124"/>
<feBlend mode="normal" in="SourceGraphic" in2="effect4_dropShadow_80_124" result="shape"/>
</filter>
</defs>
</svg>
